<?xml version="1.0" encoding="UTF-8"?>
<svg width="16px" height="16px" viewBox="0 0 16 16" version="1.1" xmlns="http://www.w3.org/2000/svg" xmlns:xlink="http://www.w3.org/1999/xlink">
    <title>apps-ai-fill</title>
    <defs>
        <linearGradient x1="50%" y1="0%" x2="50%" y2="100%" id="linearGradient-1">
            <stop stop-color="#8DCBFD" offset="0.0851077633%"></stop>
            <stop stop-color="#0578FF" offset="100%"></stop>
        </linearGradient>
        <path d="M4.5,1.66666667 C6.06480667,1.66666667 7.33333333,2.93519333 7.33333333,4.5 L7.33333333,7.33333333 L4.5,7.33333333 C2.93519333,7.33333333 1.66666667,6.06480667 1.66666667,4.5 C1.66666667,2.93519333 2.93519333,1.66666667 4.5,1.66666667 Z M4.5,8.66666667 L7.33333333,8.66666667 L7.33333333,11.5 C7.33333333,13.0648 6.06480667,14.3333333 4.5,14.3333333 C2.93519333,14.3333333 1.66666667,13.0648 1.66666667,11.5 C1.66666667,9.9352 2.93519333,8.66666667 4.5,8.66666667 Z M8.66666667,8.66666667 L11.5,8.66666667 C13.0648,8.66666667 14.3333333,9.9352 14.3333333,11.5 C14.3333333,13.0648 13.0648,14.3333333 11.5,14.3333333 C9.9352,14.3333333 8.66666667,13.0648 8.66666667,11.5 L8.66666667,8.66666667 Z M12.0053333,6.713 L11.8306667,7.11346667 C11.7028667,7.4066 11.2971333,7.4066 11.1692667,7.11346667 L10.9946667,6.713 C10.6834,5.99891333 10.1226667,5.43039333 9.423,5.11937333 L8.88486667,4.88018667 C8.59393333,4.75085333 8.59393333,4.3277 8.88486667,4.19836 L9.39286667,3.97254 C10.1105333,3.65352 10.6813333,3.06396 10.9872667,2.32564667 L11.1666,1.89288 C11.2916,1.59126 11.7084,1.59126 11.8333333,1.89288 L12.0126667,2.32564667 C12.3186667,3.06396 12.8894667,3.65352 13.6071333,3.97254 L14.1150667,4.19836 C14.4060667,4.3277 14.4060667,4.75085333 14.1150667,4.88018667 L13.5770667,5.11937333 C12.8773333,5.43039333 12.3166667,5.99891333 12.0053333,6.713 Z" id="path-2"></path>
    </defs>
    <g id="后台管理系统" stroke="none" stroke-width="1" fill="none" fill-rule="evenodd">
        <g id="qKnow切图" transform="translate(-269, -636)">
            <g id="apps-ai-fill" transform="translate(269, 636)">

                <g id="形状" fill-rule="nonzero">
                    <use fill="#1D2945" xlink:href="#path-2"></use>
                    <use fill="url(#linearGradient-1)" xlink:href="#path-2"></use>
                </g>
            </g>
        </g>
    </g>
</svg>
