<?xml version="1.0" encoding="UTF-8"?>
<svg width="16px" height="16px" viewBox="0 0 16 16" version="1.1" xmlns="http://www.w3.org/2000/svg" xmlns:xlink="http://www.w3.org/1999/xlink">
    <title>archive-stack-fill</title>
    <defs>
        <linearGradient x1="50%" y1="0%" x2="50%" y2="100%" id="linearGradient-1">
            <stop stop-color="#8DCBFD" offset="0.0851077633%"></stop>
            <stop stop-color="#0578FF" offset="100%"></stop>
        </linearGradient>
        <path d="M2.66666667,3.33333333 L13.3333333,3.33333333 L13.3333333,2 L2.66666667,2 L2.66666667,3.33333333 Z M13.3333333,6 L2.66666667,6 L2.66666667,4.66666667 L13.3333333,4.66666667 L13.3333333,6 Z M6,8.66666667 L10,8.66666667 L10,7.33333333 L14,7.33333333 L14,13.3333333 C14,13.7015333 13.7015333,14 13.3333333,14 L2.66666667,14 C2.29848,14 2,13.7015333 2,13.3333333 L2,7.33333333 L6,7.33333333 L6,8.66666667 Z" id="path-2"></path>
    </defs>
    <g id="后台管理系统" stroke="none" stroke-width="1" fill="none" fill-rule="evenodd">
        <g id="qKnow切图" transform="translate(-139, -449)">
            <g id="archive-stack-fill" transform="translate(139, 449)">

                <g id="形状" fill-rule="nonzero">
                    <use fill="#1D2945" xlink:href="#path-2"></use>
                    <use fill="url(#linearGradient-1)" xlink:href="#path-2"></use>
                </g>
            </g>
        </g>
    </g>
</svg>
