<svg xmlns="http://www.w3.org/2000/svg" width="25" height="25" viewBox="0 0 25 25">
  <g id="组_25055" data-name="组 25055" transform="translate(-2463 -1100)">
    <g id="组_25041" data-name="组 25041" transform="translate(-2933 -293)">
      <rect id="矩形_5069" data-name="矩形 5069" width="25" height="25" rx="4" transform="translate(5396 1393)" fill="#e6f0fd"/>
      <g id="组_24955" data-name="组 24955" transform="translate(5399.88 1396.216)">
        <path id="路径_23849" data-name="路径 23849" d="M601.731,165.417l3.679-4.4.818.713-3.679,4.4Zm-.479,3.348.818-.713,3.679,4.4-.818.713Z" transform="translate(-591.016 -158.05)" fill="#2e74f4" opacity="0.5"/>
        <path id="路径_23850" data-name="路径 23850" d="M108.478,72.687a7.816,7.816,0,1,1,7.875-7.816A7.84,7.84,0,0,1,108.478,72.687Zm0-14.622a6.806,6.806,0,1,0,6.838,6.806A6.823,6.823,0,0,0,108.478,58.065Z" transform="translate(-98.916 -55.905)" fill="#2e74f4" opacity="0.5"/>
        <path id="路径_23851" data-name="路径 23851" d="M151.653,499.988h7.789v1.049h-7.789Z" transform="translate(-148.997 -491.213)" fill="#2e74f4" opacity="0.5"/>
        <path id="路径_23852" data-name="路径 23852" d="M733.447,2.228m-2.229,0A2.229,2.229,0,1,0,733.447,0,2.229,2.229,0,0,0,731.219,2.228Z" transform="translate(-718.236 0.738)" fill="#2e74f4"/>
        <path id="路径_23853" data-name="路径 23853" d="M733.763,735.26m-2.544,0a2.544,2.544,0,1,0,2.544-2.544A2.544,2.544,0,0,0,731.219,735.26Z" transform="translate(-718.713 -719.973)" fill="#2e74f4"/>
        <path id="路径_23854" data-name="路径 23854" d="M338.712,291.807m-3.881,0a3.9,3.9,0,1,0,3.881-3.525A3.716,3.716,0,0,0,334.831,291.807Z" transform="translate(-329.163 -282.873)" fill="#2e74f4"/>
        <path id="路径_23855" data-name="路径 23855" d="M2.045,386.416m-2.04,0a2.04,2.04,0,1,0,2.04-2.041A2.04,2.04,0,0,0,.005,386.416Z" transform="translate(-0.358 -377.117)" fill="#2e74f4"/>
      </g>
    </g>
  </g>
</svg>
