<svg t="1766027514135" class="icon" viewBox="0 0 1024 1024" version="1.1" xmlns="http://www.w3.org/2000/svg" p-id="10136" width="200" height="200"><path d="M490.666667 618.666667h53.333333a21.333333 21.333333 0 0 1 21.333333 21.333333v53.333333a21.333333 21.333333 0 0 1-21.333333 21.333334H490.666667a21.333333 21.333333 0 0 1-21.333334-21.333334V640a21.333333 21.333333 0 0 1 21.333334-21.333333z m0-320h53.333333a21.333333 21.333333 0 0 1 21.333333 21.333333v234.666667a21.333333 21.333333 0 0 1-21.333333 21.333333H490.666667a21.333333 21.333333 0 0 1-21.333334-21.333333V320a21.333333 21.333333 0 0 1 21.333334-21.333333z m21.333333-143.466667L192 275.968v246.954667c0 149.802667 132.565333 296.96 320 348.992 187.434667-52.010667 320-199.189333 320-348.992V275.968l-320-120.746667z m-15.061333-85.504a42.666667 42.666667 0 0 1 30.122666 0l362.666667 136.853333A42.666667 42.666667 0 0 1 917.333333 246.485333v276.437334C917.333333 721.792 744.384 904.96 512 960 279.616 904.938667 106.666667 721.792 106.666667 522.922667V246.485333a42.666667 42.666667 0 0 1 27.605333-39.936l362.666667-136.853333z" fill="#ffffff" p-id="10137" data-spm-anchor-id="a313x.search_index.0.i8.52473a81WFZP6l" class="selected"></path></svg>
